<?xml version="1.0" encoding="UTF-8"?>
<!DOCTYPE svg PUBLIC "-//W3C//DTD SVG 1.1//EN" "http://www.w3.org/Graphics/SVG/1.1/DTD/svg11.dtd">
<!-- Creator: CorelDRAW X7 -->
<svg xmlns="http://www.w3.org/2000/svg" xml:space="preserve" width="210mm" height="297mm" version="1.1" style="shape-rendering:geometricPrecision; text-rendering:geometricPrecision; image-rendering:optimizeQuality; fill-rule:evenodd; clip-rule:evenodd"
viewBox="0 0 21000 29700"
 xmlns:xlink="http://www.w3.org/1999/xlink">
 <defs>
  <style type="text/css">
   <![CDATA[
    .str0 {stroke:#E31E24;stroke-width:50}
    .fil1 {fill:#FEFEFE}
    .fil0 {fill:#E84349}
   ]]>
  </style>
 </defs>
 <g id="Слой_x0020_1">
  <metadata id="CorelCorpID_0Corel-Layer"/>
  <circle class="fil0 str0" cx="9616" cy="9681" r="8887"/>
  <path class="fil1" d="M16143 7938c-3,0 -7,0 -10,0 -257,0 -468,206 -473,464l-34 1734 -12016 -80 47 -3670c4,-261 -206,-476 -467,-480 -2,0 -5,0 -7,0 -259,0 -470,208 -473,468l-85 6602c-3,262 206,477 468,480 2,0 4,0 6,0 259,0 471,-208 474,-468l25 -1984 12009 80 -32 1635c-5,262 203,478 465,483 3,0 6,0 9,0 257,0 469,-206 474,-464l84 -4317c5,-262 -203,-478 -464,-483l0 0zm-11711 1794l2370 0c320,0 580,-260 580,-580 0,-319 -260,-580 -580,-580l-2370 0c-320,0 -580,260 -580,580 0,320 260,580 580,580zm1777 -2348l1 0c254,0 493,-88 673,-247 181,-161 280,-374 280,-602 0,-467 -428,-848 -954,-848 -254,0 -493,88 -673,248 -181,160 -281,373 -280,601 0,468 428,848 953,848zm2476 2461l5502 0c627,0 1137,-510 1137,-1137 0,-627 -510,-1138 -1137,-1138l-5502 0c-627,0 -1137,511 -1137,1138 0,627 510,1137 1137,1137z"/>
 </g>
</svg>
